:SAMPLES-PER-SECOND 30
:FULLY-SPECIFIED
:DEGREES
427
root  -51.164 30.0232 -19.5214 -157.729 -66.8054 178.943
RightUpLeg  -61.4095 -13.2473 5.00331
RightLeg  61.7588 -3.22353 -5.25625
RightFoot  -12.3865 0.13329 1.81358
RightToes  -12.2358 -0.0425323 -0.111659
Spine  6.23863 2.1705 -0.742282
Spine1  11.3 5.58948 -1.86855
HEad  -48.2123 3.22906 0.0806551
LeftShoulder1  -1.94126e-019 -3.10601e-018 -2.51263e-017
LeftArm  4.32015 -18.6394 -87.9305
LeftForeArm  21.455 -21.6653 -3.43835
LeftHand  -0.472459 -1.04805 8.66087
RightShoulder  -4.96962e-017 0 -2.36833e-017
RightArm  -5.74171 23.5783 82.0159
RightForeArm  49.2247 30.1251 3.80957
RightHand  -0.404368 -0.683229 -9.95288
LeftUpLeg  -63.3218 17.2791 -5.31749
LeftLeg  62.0801 1.66816 2.69504
LeftFoot  -8.70148 -0.0279146 -0.205394
LeftToes  -7.799 2.03064e-006 1.83538e-008
428
root  -51.0061 29.2978 -19.4998 -155.937 -66.4808 178.503
RightUpLeg  -65.6735 -12.9839 5.34303
RightLeg  66.2375 -2.73397 -5.37972
RightFoot  -13.9872 0.169797 1.96765
RightToes  -11.357 -0.0393991 -0.103966
Spine  6.825 2.12589 -0.921365
Spine1  12.1963 5.53125 -2.21005
HEad  -49.1023 3.7241 -0.271857
LeftShoulder1  -1.94126e-019 -3.10601e-018 -2.51263e-017
LeftArm  4.95827 -21.3073 -88.5568
LeftForeArm  20.8423 -21.0266 -3.34296
LeftHand  -0.453845 -0.727165 8.73438
RightShoulder  -4.96962e-017 0 -2.36833e-017
RightArm  -6.50397 25.775 82.689
RightForeArm  48.5193 29.9714 3.80886
RightHand  -0.383573 -1.01789 -10.1253
LeftUpLeg  -67.4027 17.5628 -6.10814
LeftLeg  66.2554 1.3825 2.64548
LeftFoot  -10.4057 -0.0409243 -0.287922
LeftToes  -7.98102 2.03064e-006 1.83538e-008
429
root  -50.8726 28.476 -19.4805 -155.13 -66.4806 178.965
RightUpLeg  -69.8358 -12.9129 6.05371
RightLeg  70.9118 -2.20226 -5.41258
RightFoot  -15.745 0.212138 2.11572
RightToes  -10.7956 -0.0363 -0.0990208
Spine  7.35684 2.00409 -0.863844
Spine1  13.0026 5.32874 -2.14546
HEad  -50.0312 4.44578 -0.82846
LeftShoulder1  -1.94126e-019 -3.10601e-018 -2.51263e-017
LeftArm  5.42095 -23.6317 -89.4949
LeftForeArm  20.4225 -20.446 -3.24998
LeftHand  -0.451019 -0.661653 8.7691
RightShoulder  -4.96962e-017 0 -2.36833e-017
RightArm  -6.57626 28.0412 83.1745
RightForeArm  47.2987 29.5241 3.77154
RightHand  -0.349128 -1.54507 -10.4085
LeftUpLeg  -71.6212 17.7844 -6.51365
LeftLeg  70.8462 1.04344 2.45607
LeftFoot  -12.2233 -0.053483 -0.337975
LeftToes  -8.05234 2.03064e-006 1.83538e-008
430
root  -50.7689 27.5291 -19.4753 -154.62 -66.651 179.345
RightUpLeg  -73.7789 -13.0757 6.76514
RightLeg  75.9294 -1.64184 -5.3797
RightFoot  -17.9836 0.271029 2.29218
RightToes  -9.82663 -0.0322868 -0.0904325
Spine  7.95063 1.85531 -0.790471
Spine1  13.8782 5.09823 -2.08896
HEad  -51.105 5.03067 -1.01663
LeftShoulder1  -1.94126e-019 -3.10601e-018 -2.51263e-017
LeftArm  6.52371 -25.9881 -90.4854
LeftForeArm  19.7724 -19.9552 -3.18691
LeftHand  -0.438442 -0.551178 8.67642
RightShoulder  -4.96962e-017 0 -2.36833e-017
RightArm  -6.68181 30.3557 83.7387
RightForeArm  46.5443 28.835 3.66267
RightHand  -0.348633 -1.50527 -10.2912
LeftUpLeg  -75.8418 17.9682 -6.93763
LeftLeg  75.9371 0.765452 2.3641
LeftFoot  -14.1149 -0.0704659 -0.407662
LeftToes  -6.88386 2.03064e-006 1.83538e-008
431
root  -50.7353 26.4524 -19.5143 -154.483 -66.7608 179.305
RightUpLeg  -77.1521 -13.3906 7.25055
RightLeg  81.4205 -1.06289 -5.31691
RightFoot  -20.5369 0.346763 2.49161
RightToes  -8.13523 -0.0256315 -0.0752823
Spine  8.83793 1.75657 -0.752231
Spine1  15.236 4.97313 -2.09305
HEad  -52.1193 5.50407 -1.18547
LeftShoulder1  -1.94126e-019 -3.10601e-018 -2.51263e-017
LeftArm  7.64499 -28.5525 -91.6774
LeftForeArm  19.9991 -19.4304 -3.07316
LeftHand  -0.441813 -0.832525 8.37026
RightShoulder  -4.96962e-017 0 -2.36833e-017
RightArm  -6.70971 32.7559 84.3208
RightForeArm  45.6236 28.228 3.58007
RightHand  -0.386874 -1.2507 -10.7628
LeftUpLeg  -79.4732 18.7009 -7.53039
LeftLeg  81.4064 0.384997 1.73003
LeftFoot  -16.397 -0.0730959 -0.345829
LeftToes  -5.22346 2.03064e-006 1.83538e-008
432
root  -50.6499 25.3335 -19.5567 -154.318 -66.4742 -179.99
RightUpLeg  -81.3721 -13.0236 8.10388
RightLeg  86.7636 -0.54649 -5.36751
RightFoot  -22.5339 0.416812 2.66887
RightToes  -6.62049 -0.020053 -0.0615528
Spine  9.20205 1.80228 -0.75994
Spine1  15.7402 5.0492 -2.05798
HEad  -53.2236 6.08207 -1.11844
LeftShoulder1  -1.94126e-019 -3.10601e-018 -2.51263e-017
LeftArm  9.42615 -30.8122 -92.6721
LeftForeArm  19.4717 -19.1502 -3.04556
LeftHand  -0.4244 -0.674749 8.24054
RightShoulder  -4.96962e-017 0 -2.36833e-017
RightArm  -6.61757 34.732 85.0956
RightForeArm  43.5929 27.8911 3.60708
RightHand  -0.469363 -0.713301 -11.6296
LeftUpLeg  -83.9483 20.0734 -8.28514
LeftLeg  86.7752 0.0529134 0.367336
LeftFoot  -18.5925 -0.0287516 -0.0141404
LeftToes  -5.48494 2.03064e-006 1.83538e-008
433
root  -50.6693 24.1087 -19.5803 -154.477 -66.3156 -179.922
RightUpLeg  -84.8629 -13.1884 8.57695
RightLeg  92.4943 0.00965556 -5.26855
RightFoot  -24.7379 0.496548 2.83986
RightToes  -5.32265 -0.0155635 -0.0496756
Spine  9.8915 1.67994 -0.777535
Spine1  16.78 4.86585 -2.15983
HEad  -54.2039 6.99547 -1.20126
LeftShoulder1  -1.94126e-019 -3.10601e-018 -2.51263e-017
LeftArm  10.5122 -33.0046 -93.3072
LeftForeArm  19.4335 -19.2793 -3.0725
LeftHand  -0.397331 -0.544478 7.87904
RightShoulder  -4.96962e-017 0 -2.36833e-017
RightArm  -6.50267 36.665 86.3346
RightForeArm  41.4308 28.1527 3.76639
RightHand  -0.466774 -0.807223 -11.7929
LeftUpLeg  -87.3126 21.0538 -8.81498
LeftLeg  92.2442 -0.00740588 -0.629487
LeftFoot  -21.2707 0.0212414 0.27462
LeftToes  -5.65804 2.03064e-006 1.83538e-008
434
root  -50.7063 22.8136 -19.5731 -154.111 -66.6121 179.571
RightUpLeg  -88.2887 -13.7379 8.76624
RightLeg  98.2148 0.534209 -5.04916
RightFoot  -27.2825 0.58738 2.99438
RightToes  -4.38051 -0.0124736 -0.0409914
Spine  10.4532 1.35599 -0.766793
Spine1  17.6191 4.17362 -2.11982
HEad  -55.0593 7.74979 -1.31207
LeftShoulder1  -1.94126e-019 -3.10601e-018 -2.51263e-017
LeftArm  12.0245 -35.2678 -93.8608
LeftForeArm  19.6772 -19.4018 -3.08394
LeftHand  -0.384932 -0.639812 7.52306
RightShoulder  -4.96962e-017 0 -2.36833e-017
RightArm  -6.3366 38.4992 87.7803
RightForeArm  40.3066 28.6575 3.92803
RightHand  -0.472833 -0.954115 -12.3271
LeftUpLeg  -90.6721 20.726 -8.90461
LeftLeg  97.8009 0.0530712 -0.62071
LeftFoot  -23.4041 0.0140538 0.229356
LeftToes  -5.61072 2.03064e-006 1.83538e-008
